<svg xmlns="http://www.w3.org/2000/svg" width="1240" height="420" viewBox="0 0 1240 420">\n<defs><style>.title{font:700 20px system-ui,-apple-system,Segoe UI,Roboto,sans-serif;fill:#111}.label{font:600 13px system-ui,-apple-system,Segoe UI,Roboto,sans-serif;fill:#222}.value{font:700 16px system-ui,-apple-system,Segoe UI,Roboto,sans-serif;fill:#111}.tickMajor{stroke:#555}.tickMinor{stroke:#888}.tube{fill:#f4f4f4;stroke:#ccc}.segLbl{font:600 12px system-ui,-apple-system,Segoe UI,Roboto,sans-serif;fill:#666}</style></defs>\n<text x="24" y="32" class="title">Quansight Initiate Fund III, L.P. — Capital Commitments</text>\n<text x="1216" y="32" class="value" text-anchor="end">$1,090,000 / $10,000,000 (11%)</text>\n<rect x="270" y="52" rx="12" ry="12" width="52" height="246" class="tube"/>\n<clipPath id="clipFill0"><rect x="270" y="276" width="52" height="22" rx="12" ry="12"/></clipPath>\n<rect x="270" y="52" rx="12" ry="12" width="52" height="246" fill="#df421f" clip-path="url(#clipFill0)"/>\n<circle cx="296.0" cy="316.59000000000003" r="33.800000000000004" class="tube"/>\n<circle cx="296.0" cy="316.59000000000003" r="29.800000000000004" fill="#df421f"/>\n<line x1="322" y1="298" x2="330" y2="298" class="tickMajor" stroke-width="2"/>\n<line x1="322" y1="274" x2="330" y2="274" class="tickMajor" stroke-width="2"/>\n<line x1="322" y1="249" x2="330" y2="249" class="tickMajor" stroke-width="2"/>\n<line x1="322" y1="225" x2="330" y2="225" class="tickMajor" stroke-width="2"/>\n<line x1="322" y1="200" x2="330" y2="200" class="tickMajor" stroke-width="2"/>\n<line x1="322" y1="175" x2="330" y2="175" class="tickMajor" stroke-width="2"/>\n<line x1="322" y1="151" x2="330" y2="151" class="tickMajor" stroke-width="2"/>\n<line x1="322" y1="126" x2="330" y2="126" class="tickMajor" stroke-width="2"/>\n<line x1="322" y1="102" x2="330" y2="102" class="tickMajor" stroke-width="2"/>\n<line x1="322" y1="77" x2="330" y2="77" class="tickMajor" stroke-width="2"/>\n<line x1="322" y1="52" x2="330" y2="52" class="tickMajor" stroke-width="2"/>\n<line x1="322" y1="286" x2="327" y2="286" class="tickMinor" stroke-width="1"/>\n<line x1="322" y1="262" x2="327" y2="262" class="tickMinor" stroke-width="1"/>\n<line x1="322" y1="237" x2="327" y2="237" class="tickMinor" stroke-width="1"/>\n<line x1="322" y1="212" x2="327" y2="212" class="tickMinor" stroke-width="1"/>\n<line x1="322" y1="188" x2="327" y2="188" class="tickMinor" stroke-width="1"/>\n<line x1="322" y1="163" x2="327" y2="163" class="tickMinor" stroke-width="1"/>\n<line x1="322" y1="139" x2="327" y2="139" class="tickMinor" stroke-width="1"/>\n<line x1="322" y1="114" x2="327" y2="114" class="tickMinor" stroke-width="1"/>\n<line x1="322" y1="89" x2="327" y2="89" class="tickMinor" stroke-width="1"/>\n<line x1="322" y1="65" x2="327" y2="65" class="tickMinor" stroke-width="1"/>\n<text x="296.0" y="368.39000000000004" class="segLbl" text-anchor="middle">$90,000</text>\n<rect x="342" y="52" rx="12" ry="12" width="52" height="246" class="tube"/>\n<clipPath id="clipFill1"><rect x="342" y="52" width="52" height="246" rx="12" ry="12"/></clipPath>\n<rect x="342" y="52" rx="12" ry="12" width="52" height="246" fill="#1fdf1f" clip-path="url(#clipFill1)"/>\n<circle cx="368.0" cy="316.59000000000003" r="33.800000000000004" class="tube"/>\n<circle cx="368.0" cy="316.59000000000003" r="29.800000000000004" fill="#1fdf1f"/>\n<line x1="394" y1="298" x2="402" y2="298" class="tickMajor" stroke-width="2"/>\n<line x1="394" y1="274" x2="402" y2="274" class="tickMajor" stroke-width="2"/>\n<line x1="394" y1="249" x2="402" y2="249" class="tickMajor" stroke-width="2"/>\n<line x1="394" y1="225" x2="402" y2="225" class="tickMajor" stroke-width="2"/>\n<line x1="394" y1="200" x2="402" y2="200" class="tickMajor" stroke-width="2"/>\n<line x1="394" y1="175" x2="402" y2="175" class="tickMajor" stroke-width="2"/>\n<line x1="394" y1="151" x2="402" y2="151" class="tickMajor" stroke-width="2"/>\n<line x1="394" y1="126" x2="402" y2="126" class="tickMajor" stroke-width="2"/>\n<line x1="394" y1="102" x2="402" y2="102" class="tickMajor" stroke-width="2"/>\n<line x1="394" y1="77" x2="402" y2="77" class="tickMajor" stroke-width="2"/>\n<line x1="394" y1="52" x2="402" y2="52" class="tickMajor" stroke-width="2"/>\n<line x1="394" y1="286" x2="399" y2="286" class="tickMinor" stroke-width="1"/>\n<line x1="394" y1="262" x2="399" y2="262" class="tickMinor" stroke-width="1"/>\n<line x1="394" y1="237" x2="399" y2="237" class="tickMinor" stroke-width="1"/>\n<line x1="394" y1="212" x2="399" y2="212" class="tickMinor" stroke-width="1"/>\n<line x1="394" y1="188" x2="399" y2="188" class="tickMinor" stroke-width="1"/>\n<line x1="394" y1="163" x2="399" y2="163" class="tickMinor" stroke-width="1"/>\n<line x1="394" y1="139" x2="399" y2="139" class="tickMinor" stroke-width="1"/>\n<line x1="394" y1="114" x2="399" y2="114" class="tickMinor" stroke-width="1"/>\n<line x1="394" y1="89" x2="399" y2="89" class="tickMinor" stroke-width="1"/>\n<line x1="394" y1="65" x2="399" y2="65" class="tickMinor" stroke-width="1"/>\n<text x="368.0" y="368.39000000000004" class="segLbl" text-anchor="middle">$1,000,000</text>\n<rect x="414" y="52" rx="12" ry="12" width="52" height="246" class="tube"/>\n<clipPath id="clipFill2"><rect x="414" y="298" width="52" height="0" rx="12" ry="12"/></clipPath>\n<rect x="414" y="52" rx="12" ry="12" width="52" height="246" fill="#df1f1f" clip-path="url(#clipFill2)"/>\n<circle cx="440.0" cy="316.59000000000003" r="33.800000000000004" class="tube"/>\n<circle cx="440.0" cy="316.59000000000003" r="29.800000000000004" fill="#df1f1f"/>\n<line x1="466" y1="298" x2="474" y2="298" class="tickMajor" stroke-width="2"/>\n<line x1="466" y1="274" x2="474" y2="274" class="tickMajor" stroke-width="2"/>\n<line x1="466" y1="249" x2="474" y2="249" class="tickMajor" stroke-width="2"/>\n<line x1="466" y1="225" x2="474" y2="225" class="tickMajor" stroke-width="2"/>\n<line x1="466" y1="200" x2="474" y2="200" class="tickMajor" stroke-width="2"/>\n<line x1="466" y1="175" x2="474" y2="175" class="tickMajor" stroke-width="2"/>\n<line x1="466" y1="151" x2="474" y2="151" class="tickMajor" stroke-width="2"/>\n<line x1="466" y1="126" x2="474" y2="126" class="tickMajor" stroke-width="2"/>\n<line x1="466" y1="102" x2="474" y2="102" class="tickMajor" stroke-width="2"/>\n<line x1="466" y1="77" x2="474" y2="77" class="tickMajor" stroke-width="2"/>\n<line x1="466" y1="52" x2="474" y2="52" class="tickMajor" stroke-width="2"/>\n<line x1="466" y1="286" x2="471" y2="286" class="tickMinor" stroke-width="1"/>\n<line x1="466" y1="262" x2="471" y2="262" class="tickMinor" stroke-width="1"/>\n<line x1="466" y1="237" x2="471" y2="237" class="tickMinor" stroke-width="1"/>\n<line x1="466" y1="212" x2="471" y2="212" class="tickMinor" stroke-width="1"/>\n<line x1="466" y1="188" x2="471" y2="188" class="tickMinor" stroke-width="1"/>\n<line x1="466" y1="163" x2="471" y2="163" class="tickMinor" stroke-width="1"/>\n<line x1="466" y1="139" x2="471" y2="139" class="tickMinor" stroke-width="1"/>\n<line x1="466" y1="114" x2="471" y2="114" class="tickMinor" stroke-width="1"/>\n<line x1="466" y1="89" x2="471" y2="89" class="tickMinor" stroke-width="1"/>\n<line x1="466" y1="65" x2="471" y2="65" class="tickMinor" stroke-width="1"/>\n<text x="440.0" y="368.39000000000004" class="segLbl" text-anchor="middle">$0</text>\n<rect x="486" y="52" rx="12" ry="12" width="52" height="246" class="tube"/>\n<clipPath id="clipFill3"><rect x="486" y="298" width="52" height="0" rx="12" ry="12"/></clipPath>\n<rect x="486" y="52" rx="12" ry="12" width="52" height="246" fill="#df1f1f" clip-path="url(#clipFill3)"/>\n<circle cx="512.0" cy="316.59000000000003" r="33.800000000000004" class="tube"/>\n<circle cx="512.0" cy="316.59000000000003" r="29.800000000000004" fill="#df1f1f"/>\n<line x1="538" y1="298" x2="546" y2="298" class="tickMajor" stroke-width="2"/>\n<line x1="538" y1="274" x2="546" y2="274" class="tickMajor" stroke-width="2"/>\n<line x1="538" y1="249" x2="546" y2="249" class="tickMajor" stroke-width="2"/>\n<line x1="538" y1="225" x2="546" y2="225" class="tickMajor" stroke-width="2"/>\n<line x1="538" y1="200" x2="546" y2="200" class="tickMajor" stroke-width="2"/>\n<line x1="538" y1="175" x2="546" y2="175" class="tickMajor" stroke-width="2"/>\n<line x1="538" y1="151" x2="546" y2="151" class="tickMajor" stroke-width="2"/>\n<line x1="538" y1="126" x2="546" y2="126" class="tickMajor" stroke-width="2"/>\n<line x1="538" y1="102" x2="546" y2="102" class="tickMajor" stroke-width="2"/>\n<line x1="538" y1="77" x2="546" y2="77" class="tickMajor" stroke-width="2"/>\n<line x1="538" y1="52" x2="546" y2="52" class="tickMajor" stroke-width="2"/>\n<line x1="538" y1="286" x2="543" y2="286" class="tickMinor" stroke-width="1"/>\n<line x1="538" y1="262" x2="543" y2="262" class="tickMinor" stroke-width="1"/>\n<line x1="538" y1="237" x2="543" y2="237" class="tickMinor" stroke-width="1"/>\n<line x1="538" y1="212" x2="543" y2="212" class="tickMinor" stroke-width="1"/>\n<line x1="538" y1="188" x2="543" y2="188" class="tickMinor" stroke-width="1"/>\n<line x1="538" y1="163" x2="543" y2="163" class="tickMinor" stroke-width="1"/>\n<line x1="538" y1="139" x2="543" y2="139" class="tickMinor" stroke-width="1"/>\n<line x1="538" y1="114" x2="543" y2="114" class="tickMinor" stroke-width="1"/>\n<line x1="538" y1="89" x2="543" y2="89" class="tickMinor" stroke-width="1"/>\n<line x1="538" y1="65" x2="543" y2="65" class="tickMinor" stroke-width="1"/>\n<text x="512.0" y="368.39000000000004" class="segLbl" text-anchor="middle">$0</text>\n<rect x="558" y="52" rx="12" ry="12" width="52" height="246" class="tube"/>\n<clipPath id="clipFill4"><rect x="558" y="298" width="52" height="0" rx="12" ry="12"/></clipPath>\n<rect x="558" y="52" rx="12" ry="12" width="52" height="246" fill="#df1f1f" clip-path="url(#clipFill4)"/>\n<circle cx="584.0" cy="316.59000000000003" r="33.800000000000004" class="tube"/>\n<circle cx="584.0" cy="316.59000000000003" r="29.800000000000004" fill="#df1f1f"/>\n<line x1="610" y1="298" x2="618" y2="298" class="tickMajor" stroke-width="2"/>\n<line x1="610" y1="274" x2="618" y2="274" class="tickMajor" stroke-width="2"/>\n<line x1="610" y1="249" x2="618" y2="249" class="tickMajor" stroke-width="2"/>\n<line x1="610" y1="225" x2="618" y2="225" class="tickMajor" stroke-width="2"/>\n<line x1="610" y1="200" x2="618" y2="200" class="tickMajor" stroke-width="2"/>\n<line x1="610" y1="175" x2="618" y2="175" class="tickMajor" stroke-width="2"/>\n<line x1="610" y1="151" x2="618" y2="151" class="tickMajor" stroke-width="2"/>\n<line x1="610" y1="126" x2="618" y2="126" class="tickMajor" stroke-width="2"/>\n<line x1="610" y1="102" x2="618" y2="102" class="tickMajor" stroke-width="2"/>\n<line x1="610" y1="77" x2="618" y2="77" class="tickMajor" stroke-width="2"/>\n<line x1="610" y1="52" x2="618" y2="52" class="tickMajor" stroke-width="2"/>\n<line x1="610" y1="286" x2="615" y2="286" class="tickMinor" stroke-width="1"/>\n<line x1="610" y1="262" x2="615" y2="262" class="tickMinor" stroke-width="1"/>\n<line x1="610" y1="237" x2="615" y2="237" class="tickMinor" stroke-width="1"/>\n<line x1="610" y1="212" x2="615" y2="212" class="tickMinor" stroke-width="1"/>\n<line x1="610" y1="188" x2="615" y2="188" class="tickMinor" stroke-width="1"/>\n<line x1="610" y1="163" x2="615" y2="163" class="tickMinor" stroke-width="1"/>\n<line x1="610" y1="139" x2="615" y2="139" class="tickMinor" stroke-width="1"/>\n<line x1="610" y1="114" x2="615" y2="114" class="tickMinor" stroke-width="1"/>\n<line x1="610" y1="89" x2="615" y2="89" class="tickMinor" stroke-width="1"/>\n<line x1="610" y1="65" x2="615" y2="65" class="tickMinor" stroke-width="1"/>\n<text x="584.0" y="368.39000000000004" class="segLbl" text-anchor="middle">$0</text>\n<rect x="630" y="52" rx="12" ry="12" width="52" height="246" class="tube"/>\n<clipPath id="clipFill5"><rect x="630" y="298" width="52" height="0" rx="12" ry="12"/></clipPath>\n<rect x="630" y="52" rx="12" ry="12" width="52" height="246" fill="#df1f1f" clip-path="url(#clipFill5)"/>\n<circle cx="656.0" cy="316.59000000000003" r="33.800000000000004" class="tube"/>\n<circle cx="656.0" cy="316.59000000000003" r="29.800000000000004" fill="#df1f1f"/>\n<line x1="682" y1="298" x2="690" y2="298" class="tickMajor" stroke-width="2"/>\n<line x1="682" y1="274" x2="690" y2="274" class="tickMajor" stroke-width="2"/>\n<line x1="682" y1="249" x2="690" y2="249" class="tickMajor" stroke-width="2"/>\n<line x1="682" y1="225" x2="690" y2="225" class="tickMajor" stroke-width="2"/>\n<line x1="682" y1="200" x2="690" y2="200" class="tickMajor" stroke-width="2"/>\n<line x1="682" y1="175" x2="690" y2="175" class="tickMajor" stroke-width="2"/>\n<line x1="682" y1="151" x2="690" y2="151" class="tickMajor" stroke-width="2"/>\n<line x1="682" y1="126" x2="690" y2="126" class="tickMajor" stroke-width="2"/>\n<line x1="682" y1="102" x2="690" y2="102" class="tickMajor" stroke-width="2"/>\n<line x1="682" y1="77" x2="690" y2="77" class="tickMajor" stroke-width="2"/>\n<line x1="682" y1="52" x2="690" y2="52" class="tickMajor" stroke-width="2"/>\n<line x1="682" y1="286" x2="687" y2="286" class="tickMinor" stroke-width="1"/>\n<line x1="682" y1="262" x2="687" y2="262" class="tickMinor" stroke-width="1"/>\n<line x1="682" y1="237" x2="687" y2="237" class="tickMinor" stroke-width="1"/>\n<line x1="682" y1="212" x2="687" y2="212" class="tickMinor" stroke-width="1"/>\n<line x1="682" y1="188" x2="687" y2="188" class="tickMinor" stroke-width="1"/>\n<line x1="682" y1="163" x2="687" y2="163" class="tickMinor" stroke-width="1"/>\n<line x1="682" y1="139" x2="687" y2="139" class="tickMinor" stroke-width="1"/>\n<line x1="682" y1="114" x2="687" y2="114" class="tickMinor" stroke-width="1"/>\n<line x1="682" y1="89" x2="687" y2="89" class="tickMinor" stroke-width="1"/>\n<line x1="682" y1="65" x2="687" y2="65" class="tickMinor" stroke-width="1"/>\n<text x="656.0" y="368.39000000000004" class="segLbl" text-anchor="middle">$0</text>\n<rect x="702" y="52" rx="12" ry="12" width="52" height="246" class="tube"/>\n<clipPath id="clipFill6"><rect x="702" y="298" width="52" height="0" rx="12" ry="12"/></clipPath>\n<rect x="702" y="52" rx="12" ry="12" width="52" height="246" fill="#df1f1f" clip-path="url(#clipFill6)"/>\n<circle cx="728.0" cy="316.59000000000003" r="33.800000000000004" class="tube"/>\n<circle cx="728.0" cy="316.59000000000003" r="29.800000000000004" fill="#df1f1f"/>\n<line x1="754" y1="298" x2="762" y2="298" class="tickMajor" stroke-width="2"/>\n<line x1="754" y1="274" x2="762" y2="274" class="tickMajor" stroke-width="2"/>\n<line x1="754" y1="249" x2="762" y2="249" class="tickMajor" stroke-width="2"/>\n<line x1="754" y1="225" x2="762" y2="225" class="tickMajor" stroke-width="2"/>\n<line x1="754" y1="200" x2="762" y2="200" class="tickMajor" stroke-width="2"/>\n<line x1="754" y1="175" x2="762" y2="175" class="tickMajor" stroke-width="2"/>\n<line x1="754" y1="151" x2="762" y2="151" class="tickMajor" stroke-width="2"/>\n<line x1="754" y1="126" x2="762" y2="126" class="tickMajor" stroke-width="2"/>\n<line x1="754" y1="102" x2="762" y2="102" class="tickMajor" stroke-width="2"/>\n<line x1="754" y1="77" x2="762" y2="77" class="tickMajor" stroke-width="2"/>\n<line x1="754" y1="52" x2="762" y2="52" class="tickMajor" stroke-width="2"/>\n<line x1="754" y1="286" x2="759" y2="286" class="tickMinor" stroke-width="1"/>\n<line x1="754" y1="262" x2="759" y2="262" class="tickMinor" stroke-width="1"/>\n<line x1="754" y1="237" x2="759" y2="237" class="tickMinor" stroke-width="1"/>\n<line x1="754" y1="212" x2="759" y2="212" class="tickMinor" stroke-width="1"/>\n<line x1="754" y1="188" x2="759" y2="188" class="tickMinor" stroke-width="1"/>\n<line x1="754" y1="163" x2="759" y2="163" class="tickMinor" stroke-width="1"/>\n<line x1="754" y1="139" x2="759" y2="139" class="tickMinor" stroke-width="1"/>\n<line x1="754" y1="114" x2="759" y2="114" class="tickMinor" stroke-width="1"/>\n<line x1="754" y1="89" x2="759" y2="89" class="tickMinor" stroke-width="1"/>\n<line x1="754" y1="65" x2="759" y2="65" class="tickMinor" stroke-width="1"/>\n<text x="728.0" y="368.39000000000004" class="segLbl" text-anchor="middle">$0</text>\n<rect x="774" y="52" rx="12" ry="12" width="52" height="246" class="tube"/>\n<clipPath id="clipFill7"><rect x="774" y="298" width="52" height="0" rx="12" ry="12"/></clipPath>\n<rect x="774" y="52" rx="12" ry="12" width="52" height="246" fill="#df1f1f" clip-path="url(#clipFill7)"/>\n<circle cx="800.0" cy="316.59000000000003" r="33.800000000000004" class="tube"/>\n<circle cx="800.0" cy="316.59000000000003" r="29.800000000000004" fill="#df1f1f"/>\n<line x1="826" y1="298" x2="834" y2="298" class="tickMajor" stroke-width="2"/>\n<line x1="826" y1="274" x2="834" y2="274" class="tickMajor" stroke-width="2"/>\n<line x1="826" y1="249" x2="834" y2="249" class="tickMajor" stroke-width="2"/>\n<line x1="826" y1="225" x2="834" y2="225" class="tickMajor" stroke-width="2"/>\n<line x1="826" y1="200" x2="834" y2="200" class="tickMajor" stroke-width="2"/>\n<line x1="826" y1="175" x2="834" y2="175" class="tickMajor" stroke-width="2"/>\n<line x1="826" y1="151" x2="834" y2="151" class="tickMajor" stroke-width="2"/>\n<line x1="826" y1="126" x2="834" y2="126" class="tickMajor" stroke-width="2"/>\n<line x1="826" y1="102" x2="834" y2="102" class="tickMajor" stroke-width="2"/>\n<line x1="826" y1="77" x2="834" y2="77" class="tickMajor" stroke-width="2"/>\n<line x1="826" y1="52" x2="834" y2="52" class="tickMajor" stroke-width="2"/>\n<line x1="826" y1="286" x2="831" y2="286" class="tickMinor" stroke-width="1"/>\n<line x1="826" y1="262" x2="831" y2="262" class="tickMinor" stroke-width="1"/>\n<line x1="826" y1="237" x2="831" y2="237" class="tickMinor" stroke-width="1"/>\n<line x1="826" y1="212" x2="831" y2="212" class="tickMinor" stroke-width="1"/>\n<line x1="826" y1="188" x2="831" y2="188" class="tickMinor" stroke-width="1"/>\n<line x1="826" y1="163" x2="831" y2="163" class="tickMinor" stroke-width="1"/>\n<line x1="826" y1="139" x2="831" y2="139" class="tickMinor" stroke-width="1"/>\n<line x1="826" y1="114" x2="831" y2="114" class="tickMinor" stroke-width="1"/>\n<line x1="826" y1="89" x2="831" y2="89" class="tickMinor" stroke-width="1"/>\n<line x1="826" y1="65" x2="831" y2="65" class="tickMinor" stroke-width="1"/>\n<text x="800.0" y="368.39000000000004" class="segLbl" text-anchor="middle">$0</text>\n<rect x="846" y="52" rx="12" ry="12" width="52" height="246" class="tube"/>\n<clipPath id="clipFill8"><rect x="846" y="298" width="52" height="0" rx="12" ry="12"/></clipPath>\n<rect x="846" y="52" rx="12" ry="12" width="52" height="246" fill="#df1f1f" clip-path="url(#clipFill8)"/>\n<circle cx="872.0" cy="316.59000000000003" r="33.800000000000004" class="tube"/>\n<circle cx="872.0" cy="316.59000000000003" r="29.800000000000004" fill="#df1f1f"/>\n<line x1="898" y1="298" x2="906" y2="298" class="tickMajor" stroke-width="2"/>\n<line x1="898" y1="274" x2="906" y2="274" class="tickMajor" stroke-width="2"/>\n<line x1="898" y1="249" x2="906" y2="249" class="tickMajor" stroke-width="2"/>\n<line x1="898" y1="225" x2="906" y2="225" class="tickMajor" stroke-width="2"/>\n<line x1="898" y1="200" x2="906" y2="200" class="tickMajor" stroke-width="2"/>\n<line x1="898" y1="175" x2="906" y2="175" class="tickMajor" stroke-width="2"/>\n<line x1="898" y1="151" x2="906" y2="151" class="tickMajor" stroke-width="2"/>\n<line x1="898" y1="126" x2="906" y2="126" class="tickMajor" stroke-width="2"/>\n<line x1="898" y1="102" x2="906" y2="102" class="tickMajor" stroke-width="2"/>\n<line x1="898" y1="77" x2="906" y2="77" class="tickMajor" stroke-width="2"/>\n<line x1="898" y1="52" x2="906" y2="52" class="tickMajor" stroke-width="2"/>\n<line x1="898" y1="286" x2="903" y2="286" class="tickMinor" stroke-width="1"/>\n<line x1="898" y1="262" x2="903" y2="262" class="tickMinor" stroke-width="1"/>\n<line x1="898" y1="237" x2="903" y2="237" class="tickMinor" stroke-width="1"/>\n<line x1="898" y1="212" x2="903" y2="212" class="tickMinor" stroke-width="1"/>\n<line x1="898" y1="188" x2="903" y2="188" class="tickMinor" stroke-width="1"/>\n<line x1="898" y1="163" x2="903" y2="163" class="tickMinor" stroke-width="1"/>\n<line x1="898" y1="139" x2="903" y2="139" class="tickMinor" stroke-width="1"/>\n<line x1="898" y1="114" x2="903" y2="114" class="tickMinor" stroke-width="1"/>\n<line x1="898" y1="89" x2="903" y2="89" class="tickMinor" stroke-width="1"/>\n<line x1="898" y1="65" x2="903" y2="65" class="tickMinor" stroke-width="1"/>\n<text x="872.0" y="368.39000000000004" class="segLbl" text-anchor="middle">$0</text>\n<rect x="918" y="52" rx="12" ry="12" width="52" height="246" class="tube"/>\n<clipPath id="clipFill9"><rect x="918" y="298" width="52" height="0" rx="12" ry="12"/></clipPath>\n<rect x="918" y="52" rx="12" ry="12" width="52" height="246" fill="#df1f1f" clip-path="url(#clipFill9)"/>\n<circle cx="944.0" cy="316.59000000000003" r="33.800000000000004" class="tube"/>\n<circle cx="944.0" cy="316.59000000000003" r="29.800000000000004" fill="#df1f1f"/>\n<line x1="970" y1="298" x2="978" y2="298" class="tickMajor" stroke-width="2"/>\n<line x1="970" y1="274" x2="978" y2="274" class="tickMajor" stroke-width="2"/>\n<line x1="970" y1="249" x2="978" y2="249" class="tickMajor" stroke-width="2"/>\n<line x1="970" y1="225" x2="978" y2="225" class="tickMajor" stroke-width="2"/>\n<line x1="970" y1="200" x2="978" y2="200" class="tickMajor" stroke-width="2"/>\n<line x1="970" y1="175" x2="978" y2="175" class="tickMajor" stroke-width="2"/>\n<line x1="970" y1="151" x2="978" y2="151" class="tickMajor" stroke-width="2"/>\n<line x1="970" y1="126" x2="978" y2="126" class="tickMajor" stroke-width="2"/>\n<line x1="970" y1="102" x2="978" y2="102" class="tickMajor" stroke-width="2"/>\n<line x1="970" y1="77" x2="978" y2="77" class="tickMajor" stroke-width="2"/>\n<line x1="970" y1="52" x2="978" y2="52" class="tickMajor" stroke-width="2"/>\n<line x1="970" y1="286" x2="975" y2="286" class="tickMinor" stroke-width="1"/>\n<line x1="970" y1="262" x2="975" y2="262" class="tickMinor" stroke-width="1"/>\n<line x1="970" y1="237" x2="975" y2="237" class="tickMinor" stroke-width="1"/>\n<line x1="970" y1="212" x2="975" y2="212" class="tickMinor" stroke-width="1"/>\n<line x1="970" y1="188" x2="975" y2="188" class="tickMinor" stroke-width="1"/>\n<line x1="970" y1="163" x2="975" y2="163" class="tickMinor" stroke-width="1"/>\n<line x1="970" y1="139" x2="975" y2="139" class="tickMinor" stroke-width="1"/>\n<line x1="970" y1="114" x2="975" y2="114" class="tickMinor" stroke-width="1"/>\n<line x1="970" y1="89" x2="975" y2="89" class="tickMinor" stroke-width="1"/>\n<line x1="970" y1="65" x2="975" y2="65" class="tickMinor" stroke-width="1"/>\n<text x="944.0" y="368.39000000000004" class="segLbl" text-anchor="middle">$0</text>\n<text x="620.0" y="406" class="segLbl" text-anchor="middle">10 thermometers × $1M each · Major ticks $100k · Minor ticks $50k · Tracking capital commitments</text>\n</svg>