<svg xmlns="http://www.w3.org/2000/svg" width="1240" height="420" viewBox="0 0 1240 420">\n<defs>\n<style>.title{font:700 20px system-ui,-apple-system,Segoe UI,Roboto,sans-serif;fill:#111}.label{font:600 13px system-ui,-apple-system,Segoe UI,Roboto,sans-serif;fill:#222}.value{font:700 16px system-ui,-apple-system,Segoe UI,Roboto,sans-serif;fill:#111}.tickMajor{stroke:#555}.tickMinor{stroke:#888}.tube{fill:none;stroke:#999;stroke-width:1.1}.segLbl{font:600 12px system-ui,-apple-system,Segoe UI,Roboto,sans-serif;fill:#666}</style>\n<linearGradient id="grad0" x1="0" y1="1" x2="0" y2="0"><stop offset="0%" stop-color="#d0021b"/><stop offset="100%" stop-color="#27ae60"/></linearGradient>\n<linearGradient id="grad1" x1="0" y1="1" x2="0" y2="0"><stop offset="0%" stop-color="#d0021b"/><stop offset="100%" stop-color="#27ae60"/></linearGradient>\n<linearGradient id="grad2" x1="0" y1="1" x2="0" y2="0"><stop offset="0%" stop-color="#d0021b"/><stop offset="100%" stop-color="#27ae60"/></linearGradient>\n<linearGradient id="grad3" x1="0" y1="1" x2="0" y2="0"><stop offset="0%" stop-color="#d0021b"/><stop offset="100%" stop-color="#27ae60"/></linearGradient>\n<linearGradient id="grad4" x1="0" y1="1" x2="0" y2="0"><stop offset="0%" stop-color="#d0021b"/><stop offset="100%" stop-color="#27ae60"/></linearGradient>\n<linearGradient id="grad5" x1="0" y1="1" x2="0" y2="0"><stop offset="0%" stop-color="#d0021b"/><stop offset="100%" stop-color="#27ae60"/></linearGradient>\n<linearGradient id="grad6" x1="0" y1="1" x2="0" y2="0"><stop offset="0%" stop-color="#d0021b"/><stop offset="100%" stop-color="#27ae60"/></linearGradient>\n<linearGradient id="grad7" x1="0" y1="1" x2="0" y2="0"><stop offset="0%" stop-color="#d0021b"/><stop offset="100%" stop-color="#27ae60"/></linearGradient>\n<linearGradient id="grad8" x1="0" y1="1" x2="0" y2="0"><stop offset="0%" stop-color="#d0021b"/><stop offset="100%" stop-color="#27ae60"/></linearGradient>\n<linearGradient id="grad9" x1="0" y1="1" x2="0" y2="0"><stop offset="0%" stop-color="#d0021b"/><stop offset="100%" stop-color="#27ae60"/></linearGradient>\n</defs>\n<text x="24" y="32" class="title">Quansight Initiate Fund III, L.P. — Capital Commitments</text>\n<text x="1216" y="32" class="value" text-anchor="end">$0 / $10,000,000 (0%)</text>\n<rect x="270" y="52" rx="12" ry="12" width="52" height="246" class="tube"/>\n<circle cx="296.0" cy="316.59000000000003" r="33.800000000000004" class="tube"/>\n<clipPath id="clipShape0"><rect x="270" y="52" rx="12" ry="12" width="52" height="246"/><circle cx="296.0" cy="316.59000000000003" r="33.800000000000004"/></clipPath>\n<clipPath id="clipLevel0"><rect x="268" y="350.39000000000004" width="56" height="0"/></clipPath>\n<g clip-path="url(#clipShape0)"><rect x="270" y="52" width="52" height="298.39000000000004" fill="url(#grad0)" clip-path="url(#clipLevel0)"/></g>\n<line x1="322" y1="298" x2="330" y2="298" class="tickMajor" stroke-width="2"/>\n<line x1="322" y1="274" x2="330" y2="274" class="tickMajor" stroke-width="2"/>\n<line x1="322" y1="249" x2="330" y2="249" class="tickMajor" stroke-width="2"/>\n<line x1="322" y1="225" x2="330" y2="225" class="tickMajor" stroke-width="2"/>\n<line x1="322" y1="200" x2="330" y2="200" class="tickMajor" stroke-width="2"/>\n<line x1="322" y1="175" x2="330" y2="175" class="tickMajor" stroke-width="2"/>\n<line x1="322" y1="151" x2="330" y2="151" class="tickMajor" stroke-width="2"/>\n<line x1="322" y1="126" x2="330" y2="126" class="tickMajor" stroke-width="2"/>\n<line x1="322" y1="102" x2="330" y2="102" class="tickMajor" stroke-width="2"/>\n<line x1="322" y1="77" x2="330" y2="77" class="tickMajor" stroke-width="2"/>\n<line x1="322" y1="52" x2="330" y2="52" class="tickMajor" stroke-width="2"/>\n<line x1="322" y1="286" x2="327" y2="286" class="tickMinor" stroke-width="1"/>\n<line x1="322" y1="262" x2="327" y2="262" class="tickMinor" stroke-width="1"/>\n<line x1="322" y1="237" x2="327" y2="237" class="tickMinor" stroke-width="1"/>\n<line x1="322" y1="212" x2="327" y2="212" class="tickMinor" stroke-width="1"/>\n<line x1="322" y1="188" x2="327" y2="188" class="tickMinor" stroke-width="1"/>\n<line x1="322" y1="163" x2="327" y2="163" class="tickMinor" stroke-width="1"/>\n<line x1="322" y1="139" x2="327" y2="139" class="tickMinor" stroke-width="1"/>\n<line x1="322" y1="114" x2="327" y2="114" class="tickMinor" stroke-width="1"/>\n<line x1="322" y1="89" x2="327" y2="89" class="tickMinor" stroke-width="1"/>\n<line x1="322" y1="65" x2="327" y2="65" class="tickMinor" stroke-width="1"/>\n<text x="296.0" y="368.39000000000004" class="segLbl" text-anchor="middle">$0</text>\n<rect x="342" y="52" rx="12" ry="12" width="52" height="246" class="tube"/>\n<circle cx="368.0" cy="316.59000000000003" r="33.800000000000004" class="tube"/>\n<clipPath id="clipShape1"><rect x="342" y="52" rx="12" ry="12" width="52" height="246"/><circle cx="368.0" cy="316.59000000000003" r="33.800000000000004"/></clipPath>\n<clipPath id="clipLevel1"><rect x="340" y="350.39000000000004" width="56" height="0"/></clipPath>\n<g clip-path="url(#clipShape1)"><rect x="342" y="52" width="52" height="298.39000000000004" fill="url(#grad1)" clip-path="url(#clipLevel1)"/></g>\n<line x1="394" y1="298" x2="402" y2="298" class="tickMajor" stroke-width="2"/>\n<line x1="394" y1="274" x2="402" y2="274" class="tickMajor" stroke-width="2"/>\n<line x1="394" y1="249" x2="402" y2="249" class="tickMajor" stroke-width="2"/>\n<line x1="394" y1="225" x2="402" y2="225" class="tickMajor" stroke-width="2"/>\n<line x1="394" y1="200" x2="402" y2="200" class="tickMajor" stroke-width="2"/>\n<line x1="394" y1="175" x2="402" y2="175" class="tickMajor" stroke-width="2"/>\n<line x1="394" y1="151" x2="402" y2="151" class="tickMajor" stroke-width="2"/>\n<line x1="394" y1="126" x2="402" y2="126" class="tickMajor" stroke-width="2"/>\n<line x1="394" y1="102" x2="402" y2="102" class="tickMajor" stroke-width="2"/>\n<line x1="394" y1="77" x2="402" y2="77" class="tickMajor" stroke-width="2"/>\n<line x1="394" y1="52" x2="402" y2="52" class="tickMajor" stroke-width="2"/>\n<line x1="394" y1="286" x2="399" y2="286" class="tickMinor" stroke-width="1"/>\n<line x1="394" y1="262" x2="399" y2="262" class="tickMinor" stroke-width="1"/>\n<line x1="394" y1="237" x2="399" y2="237" class="tickMinor" stroke-width="1"/>\n<line x1="394" y1="212" x2="399" y2="212" class="tickMinor" stroke-width="1"/>\n<line x1="394" y1="188" x2="399" y2="188" class="tickMinor" stroke-width="1"/>\n<line x1="394" y1="163" x2="399" y2="163" class="tickMinor" stroke-width="1"/>\n<line x1="394" y1="139" x2="399" y2="139" class="tickMinor" stroke-width="1"/>\n<line x1="394" y1="114" x2="399" y2="114" class="tickMinor" stroke-width="1"/>\n<line x1="394" y1="89" x2="399" y2="89" class="tickMinor" stroke-width="1"/>\n<line x1="394" y1="65" x2="399" y2="65" class="tickMinor" stroke-width="1"/>\n<text x="368.0" y="368.39000000000004" class="segLbl" text-anchor="middle">$0</text>\n<rect x="414" y="52" rx="12" ry="12" width="52" height="246" class="tube"/>\n<circle cx="440.0" cy="316.59000000000003" r="33.800000000000004" class="tube"/>\n<clipPath id="clipShape2"><rect x="414" y="52" rx="12" ry="12" width="52" height="246"/><circle cx="440.0" cy="316.59000000000003" r="33.800000000000004"/></clipPath>\n<clipPath id="clipLevel2"><rect x="412" y="350.39000000000004" width="56" height="0"/></clipPath>\n<g clip-path="url(#clipShape2)"><rect x="414" y="52" width="52" height="298.39000000000004" fill="url(#grad2)" clip-path="url(#clipLevel2)"/></g>\n<line x1="466" y1="298" x2="474" y2="298" class="tickMajor" stroke-width="2"/>\n<line x1="466" y1="274" x2="474" y2="274" class="tickMajor" stroke-width="2"/>\n<line x1="466" y1="249" x2="474" y2="249" class="tickMajor" stroke-width="2"/>\n<line x1="466" y1="225" x2="474" y2="225" class="tickMajor" stroke-width="2"/>\n<line x1="466" y1="200" x2="474" y2="200" class="tickMajor" stroke-width="2"/>\n<line x1="466" y1="175" x2="474" y2="175" class="tickMajor" stroke-width="2"/>\n<line x1="466" y1="151" x2="474" y2="151" class="tickMajor" stroke-width="2"/>\n<line x1="466" y1="126" x2="474" y2="126" class="tickMajor" stroke-width="2"/>\n<line x1="466" y1="102" x2="474" y2="102" class="tickMajor" stroke-width="2"/>\n<line x1="466" y1="77" x2="474" y2="77" class="tickMajor" stroke-width="2"/>\n<line x1="466" y1="52" x2="474" y2="52" class="tickMajor" stroke-width="2"/>\n<line x1="466" y1="286" x2="471" y2="286" class="tickMinor" stroke-width="1"/>\n<line x1="466" y1="262" x2="471" y2="262" class="tickMinor" stroke-width="1"/>\n<line x1="466" y1="237" x2="471" y2="237" class="tickMinor" stroke-width="1"/>\n<line x1="466" y1="212" x2="471" y2="212" class="tickMinor" stroke-width="1"/>\n<line x1="466" y1="188" x2="471" y2="188" class="tickMinor" stroke-width="1"/>\n<line x1="466" y1="163" x2="471" y2="163" class="tickMinor" stroke-width="1"/>\n<line x1="466" y1="139" x2="471" y2="139" class="tickMinor" stroke-width="1"/>\n<line x1="466" y1="114" x2="471" y2="114" class="tickMinor" stroke-width="1"/>\n<line x1="466" y1="89" x2="471" y2="89" class="tickMinor" stroke-width="1"/>\n<line x1="466" y1="65" x2="471" y2="65" class="tickMinor" stroke-width="1"/>\n<text x="440.0" y="368.39000000000004" class="segLbl" text-anchor="middle">$0</text>\n<rect x="486" y="52" rx="12" ry="12" width="52" height="246" class="tube"/>\n<circle cx="512.0" cy="316.59000000000003" r="33.800000000000004" class="tube"/>\n<clipPath id="clipShape3"><rect x="486" y="52" rx="12" ry="12" width="52" height="246"/><circle cx="512.0" cy="316.59000000000003" r="33.800000000000004"/></clipPath>\n<clipPath id="clipLevel3"><rect x="484" y="350.39000000000004" width="56" height="0"/></clipPath>\n<g clip-path="url(#clipShape3)"><rect x="486" y="52" width="52" height="298.39000000000004" fill="url(#grad3)" clip-path="url(#clipLevel3)"/></g>\n<line x1="538" y1="298" x2="546" y2="298" class="tickMajor" stroke-width="2"/>\n<line x1="538" y1="274" x2="546" y2="274" class="tickMajor" stroke-width="2"/>\n<line x1="538" y1="249" x2="546" y2="249" class="tickMajor" stroke-width="2"/>\n<line x1="538" y1="225" x2="546" y2="225" class="tickMajor" stroke-width="2"/>\n<line x1="538" y1="200" x2="546" y2="200" class="tickMajor" stroke-width="2"/>\n<line x1="538" y1="175" x2="546" y2="175" class="tickMajor" stroke-width="2"/>\n<line x1="538" y1="151" x2="546" y2="151" class="tickMajor" stroke-width="2"/>\n<line x1="538" y1="126" x2="546" y2="126" class="tickMajor" stroke-width="2"/>\n<line x1="538" y1="102" x2="546" y2="102" class="tickMajor" stroke-width="2"/>\n<line x1="538" y1="77" x2="546" y2="77" class="tickMajor" stroke-width="2"/>\n<line x1="538" y1="52" x2="546" y2="52" class="tickMajor" stroke-width="2"/>\n<line x1="538" y1="286" x2="543" y2="286" class="tickMinor" stroke-width="1"/>\n<line x1="538" y1="262" x2="543" y2="262" class="tickMinor" stroke-width="1"/>\n<line x1="538" y1="237" x2="543" y2="237" class="tickMinor" stroke-width="1"/>\n<line x1="538" y1="212" x2="543" y2="212" class="tickMinor" stroke-width="1"/>\n<line x1="538" y1="188" x2="543" y2="188" class="tickMinor" stroke-width="1"/>\n<line x1="538" y1="163" x2="543" y2="163" class="tickMinor" stroke-width="1"/>\n<line x1="538" y1="139" x2="543" y2="139" class="tickMinor" stroke-width="1"/>\n<line x1="538" y1="114" x2="543" y2="114" class="tickMinor" stroke-width="1"/>\n<line x1="538" y1="89" x2="543" y2="89" class="tickMinor" stroke-width="1"/>\n<line x1="538" y1="65" x2="543" y2="65" class="tickMinor" stroke-width="1"/>\n<text x="512.0" y="368.39000000000004" class="segLbl" text-anchor="middle">$0</text>\n<rect x="558" y="52" rx="12" ry="12" width="52" height="246" class="tube"/>\n<circle cx="584.0" cy="316.59000000000003" r="33.800000000000004" class="tube"/>\n<clipPath id="clipShape4"><rect x="558" y="52" rx="12" ry="12" width="52" height="246"/><circle cx="584.0" cy="316.59000000000003" r="33.800000000000004"/></clipPath>\n<clipPath id="clipLevel4"><rect x="556" y="350.39000000000004" width="56" height="0"/></clipPath>\n<g clip-path="url(#clipShape4)"><rect x="558" y="52" width="52" height="298.39000000000004" fill="url(#grad4)" clip-path="url(#clipLevel4)"/></g>\n<line x1="610" y1="298" x2="618" y2="298" class="tickMajor" stroke-width="2"/>\n<line x1="610" y1="274" x2="618" y2="274" class="tickMajor" stroke-width="2"/>\n<line x1="610" y1="249" x2="618" y2="249" class="tickMajor" stroke-width="2"/>\n<line x1="610" y1="225" x2="618" y2="225" class="tickMajor" stroke-width="2"/>\n<line x1="610" y1="200" x2="618" y2="200" class="tickMajor" stroke-width="2"/>\n<line x1="610" y1="175" x2="618" y2="175" class="tickMajor" stroke-width="2"/>\n<line x1="610" y1="151" x2="618" y2="151" class="tickMajor" stroke-width="2"/>\n<line x1="610" y1="126" x2="618" y2="126" class="tickMajor" stroke-width="2"/>\n<line x1="610" y1="102" x2="618" y2="102" class="tickMajor" stroke-width="2"/>\n<line x1="610" y1="77" x2="618" y2="77" class="tickMajor" stroke-width="2"/>\n<line x1="610" y1="52" x2="618" y2="52" class="tickMajor" stroke-width="2"/>\n<line x1="610" y1="286" x2="615" y2="286" class="tickMinor" stroke-width="1"/>\n<line x1="610" y1="262" x2="615" y2="262" class="tickMinor" stroke-width="1"/>\n<line x1="610" y1="237" x2="615" y2="237" class="tickMinor" stroke-width="1"/>\n<line x1="610" y1="212" x2="615" y2="212" class="tickMinor" stroke-width="1"/>\n<line x1="610" y1="188" x2="615" y2="188" class="tickMinor" stroke-width="1"/>\n<line x1="610" y1="163" x2="615" y2="163" class="tickMinor" stroke-width="1"/>\n<line x1="610" y1="139" x2="615" y2="139" class="tickMinor" stroke-width="1"/>\n<line x1="610" y1="114" x2="615" y2="114" class="tickMinor" stroke-width="1"/>\n<line x1="610" y1="89" x2="615" y2="89" class="tickMinor" stroke-width="1"/>\n<line x1="610" y1="65" x2="615" y2="65" class="tickMinor" stroke-width="1"/>\n<text x="584.0" y="368.39000000000004" class="segLbl" text-anchor="middle">$0</text>\n<rect x="630" y="52" rx="12" ry="12" width="52" height="246" class="tube"/>\n<circle cx="656.0" cy="316.59000000000003" r="33.800000000000004" class="tube"/>\n<clipPath id="clipShape5"><rect x="630" y="52" rx="12" ry="12" width="52" height="246"/><circle cx="656.0" cy="316.59000000000003" r="33.800000000000004"/></clipPath>\n<clipPath id="clipLevel5"><rect x="628" y="350.39000000000004" width="56" height="0"/></clipPath>\n<g clip-path="url(#clipShape5)"><rect x="630" y="52" width="52" height="298.39000000000004" fill="url(#grad5)" clip-path="url(#clipLevel5)"/></g>\n<line x1="682" y1="298" x2="690" y2="298" class="tickMajor" stroke-width="2"/>\n<line x1="682" y1="274" x2="690" y2="274" class="tickMajor" stroke-width="2"/>\n<line x1="682" y1="249" x2="690" y2="249" class="tickMajor" stroke-width="2"/>\n<line x1="682" y1="225" x2="690" y2="225" class="tickMajor" stroke-width="2"/>\n<line x1="682" y1="200" x2="690" y2="200" class="tickMajor" stroke-width="2"/>\n<line x1="682" y1="175" x2="690" y2="175" class="tickMajor" stroke-width="2"/>\n<line x1="682" y1="151" x2="690" y2="151" class="tickMajor" stroke-width="2"/>\n<line x1="682" y1="126" x2="690" y2="126" class="tickMajor" stroke-width="2"/>\n<line x1="682" y1="102" x2="690" y2="102" class="tickMajor" stroke-width="2"/>\n<line x1="682" y1="77" x2="690" y2="77" class="tickMajor" stroke-width="2"/>\n<line x1="682" y1="52" x2="690" y2="52" class="tickMajor" stroke-width="2"/>\n<line x1="682" y1="286" x2="687" y2="286" class="tickMinor" stroke-width="1"/>\n<line x1="682" y1="262" x2="687" y2="262" class="tickMinor" stroke-width="1"/>\n<line x1="682" y1="237" x2="687" y2="237" class="tickMinor" stroke-width="1"/>\n<line x1="682" y1="212" x2="687" y2="212" class="tickMinor" stroke-width="1"/>\n<line x1="682" y1="188" x2="687" y2="188" class="tickMinor" stroke-width="1"/>\n<line x1="682" y1="163" x2="687" y2="163" class="tickMinor" stroke-width="1"/>\n<line x1="682" y1="139" x2="687" y2="139" class="tickMinor" stroke-width="1"/>\n<line x1="682" y1="114" x2="687" y2="114" class="tickMinor" stroke-width="1"/>\n<line x1="682" y1="89" x2="687" y2="89" class="tickMinor" stroke-width="1"/>\n<line x1="682" y1="65" x2="687" y2="65" class="tickMinor" stroke-width="1"/>\n<text x="656.0" y="368.39000000000004" class="segLbl" text-anchor="middle">$0</text>\n<rect x="702" y="52" rx="12" ry="12" width="52" height="246" class="tube"/>\n<circle cx="728.0" cy="316.59000000000003" r="33.800000000000004" class="tube"/>\n<clipPath id="clipShape6"><rect x="702" y="52" rx="12" ry="12" width="52" height="246"/><circle cx="728.0" cy="316.59000000000003" r="33.800000000000004"/></clipPath>\n<clipPath id="clipLevel6"><rect x="700" y="350.39000000000004" width="56" height="0"/></clipPath>\n<g clip-path="url(#clipShape6)"><rect x="702" y="52" width="52" height="298.39000000000004" fill="url(#grad6)" clip-path="url(#clipLevel6)"/></g>\n<line x1="754" y1="298" x2="762" y2="298" class="tickMajor" stroke-width="2"/>\n<line x1="754" y1="274" x2="762" y2="274" class="tickMajor" stroke-width="2"/>\n<line x1="754" y1="249" x2="762" y2="249" class="tickMajor" stroke-width="2"/>\n<line x1="754" y1="225" x2="762" y2="225" class="tickMajor" stroke-width="2"/>\n<line x1="754" y1="200" x2="762" y2="200" class="tickMajor" stroke-width="2"/>\n<line x1="754" y1="175" x2="762" y2="175" class="tickMajor" stroke-width="2"/>\n<line x1="754" y1="151" x2="762" y2="151" class="tickMajor" stroke-width="2"/>\n<line x1="754" y1="126" x2="762" y2="126" class="tickMajor" stroke-width="2"/>\n<line x1="754" y1="102" x2="762" y2="102" class="tickMajor" stroke-width="2"/>\n<line x1="754" y1="77" x2="762" y2="77" class="tickMajor" stroke-width="2"/>\n<line x1="754" y1="52" x2="762" y2="52" class="tickMajor" stroke-width="2"/>\n<line x1="754" y1="286" x2="759" y2="286" class="tickMinor" stroke-width="1"/>\n<line x1="754" y1="262" x2="759" y2="262" class="tickMinor" stroke-width="1"/>\n<line x1="754" y1="237" x2="759" y2="237" class="tickMinor" stroke-width="1"/>\n<line x1="754" y1="212" x2="759" y2="212" class="tickMinor" stroke-width="1"/>\n<line x1="754" y1="188" x2="759" y2="188" class="tickMinor" stroke-width="1"/>\n<line x1="754" y1="163" x2="759" y2="163" class="tickMinor" stroke-width="1"/>\n<line x1="754" y1="139" x2="759" y2="139" class="tickMinor" stroke-width="1"/>\n<line x1="754" y1="114" x2="759" y2="114" class="tickMinor" stroke-width="1"/>\n<line x1="754" y1="89" x2="759" y2="89" class="tickMinor" stroke-width="1"/>\n<line x1="754" y1="65" x2="759" y2="65" class="tickMinor" stroke-width="1"/>\n<text x="728.0" y="368.39000000000004" class="segLbl" text-anchor="middle">$0</text>\n<rect x="774" y="52" rx="12" ry="12" width="52" height="246" class="tube"/>\n<circle cx="800.0" cy="316.59000000000003" r="33.800000000000004" class="tube"/>\n<clipPath id="clipShape7"><rect x="774" y="52" rx="12" ry="12" width="52" height="246"/><circle cx="800.0" cy="316.59000000000003" r="33.800000000000004"/></clipPath>\n<clipPath id="clipLevel7"><rect x="772" y="350.39000000000004" width="56" height="0"/></clipPath>\n<g clip-path="url(#clipShape7)"><rect x="774" y="52" width="52" height="298.39000000000004" fill="url(#grad7)" clip-path="url(#clipLevel7)"/></g>\n<line x1="826" y1="298" x2="834" y2="298" class="tickMajor" stroke-width="2"/>\n<line x1="826" y1="274" x2="834" y2="274" class="tickMajor" stroke-width="2"/>\n<line x1="826" y1="249" x2="834" y2="249" class="tickMajor" stroke-width="2"/>\n<line x1="826" y1="225" x2="834" y2="225" class="tickMajor" stroke-width="2"/>\n<line x1="826" y1="200" x2="834" y2="200" class="tickMajor" stroke-width="2"/>\n<line x1="826" y1="175" x2="834" y2="175" class="tickMajor" stroke-width="2"/>\n<line x1="826" y1="151" x2="834" y2="151" class="tickMajor" stroke-width="2"/>\n<line x1="826" y1="126" x2="834" y2="126" class="tickMajor" stroke-width="2"/>\n<line x1="826" y1="102" x2="834" y2="102" class="tickMajor" stroke-width="2"/>\n<line x1="826" y1="77" x2="834" y2="77" class="tickMajor" stroke-width="2"/>\n<line x1="826" y1="52" x2="834" y2="52" class="tickMajor" stroke-width="2"/>\n<line x1="826" y1="286" x2="831" y2="286" class="tickMinor" stroke-width="1"/>\n<line x1="826" y1="262" x2="831" y2="262" class="tickMinor" stroke-width="1"/>\n<line x1="826" y1="237" x2="831" y2="237" class="tickMinor" stroke-width="1"/>\n<line x1="826" y1="212" x2="831" y2="212" class="tickMinor" stroke-width="1"/>\n<line x1="826" y1="188" x2="831" y2="188" class="tickMinor" stroke-width="1"/>\n<line x1="826" y1="163" x2="831" y2="163" class="tickMinor" stroke-width="1"/>\n<line x1="826" y1="139" x2="831" y2="139" class="tickMinor" stroke-width="1"/>\n<line x1="826" y1="114" x2="831" y2="114" class="tickMinor" stroke-width="1"/>\n<line x1="826" y1="89" x2="831" y2="89" class="tickMinor" stroke-width="1"/>\n<line x1="826" y1="65" x2="831" y2="65" class="tickMinor" stroke-width="1"/>\n<text x="800.0" y="368.39000000000004" class="segLbl" text-anchor="middle">$0</text>\n<rect x="846" y="52" rx="12" ry="12" width="52" height="246" class="tube"/>\n<circle cx="872.0" cy="316.59000000000003" r="33.800000000000004" class="tube"/>\n<clipPath id="clipShape8"><rect x="846" y="52" rx="12" ry="12" width="52" height="246"/><circle cx="872.0" cy="316.59000000000003" r="33.800000000000004"/></clipPath>\n<clipPath id="clipLevel8"><rect x="844" y="350.39000000000004" width="56" height="0"/></clipPath>\n<g clip-path="url(#clipShape8)"><rect x="846" y="52" width="52" height="298.39000000000004" fill="url(#grad8)" clip-path="url(#clipLevel8)"/></g>\n<line x1="898" y1="298" x2="906" y2="298" class="tickMajor" stroke-width="2"/>\n<line x1="898" y1="274" x2="906" y2="274" class="tickMajor" stroke-width="2"/>\n<line x1="898" y1="249" x2="906" y2="249" class="tickMajor" stroke-width="2"/>\n<line x1="898" y1="225" x2="906" y2="225" class="tickMajor" stroke-width="2"/>\n<line x1="898" y1="200" x2="906" y2="200" class="tickMajor" stroke-width="2"/>\n<line x1="898" y1="175" x2="906" y2="175" class="tickMajor" stroke-width="2"/>\n<line x1="898" y1="151" x2="906" y2="151" class="tickMajor" stroke-width="2"/>\n<line x1="898" y1="126" x2="906" y2="126" class="tickMajor" stroke-width="2"/>\n<line x1="898" y1="102" x2="906" y2="102" class="tickMajor" stroke-width="2"/>\n<line x1="898" y1="77" x2="906" y2="77" class="tickMajor" stroke-width="2"/>\n<line x1="898" y1="52" x2="906" y2="52" class="tickMajor" stroke-width="2"/>\n<line x1="898" y1="286" x2="903" y2="286" class="tickMinor" stroke-width="1"/>\n<line x1="898" y1="262" x2="903" y2="262" class="tickMinor" stroke-width="1"/>\n<line x1="898" y1="237" x2="903" y2="237" class="tickMinor" stroke-width="1"/>\n<line x1="898" y1="212" x2="903" y2="212" class="tickMinor" stroke-width="1"/>\n<line x1="898" y1="188" x2="903" y2="188" class="tickMinor" stroke-width="1"/>\n<line x1="898" y1="163" x2="903" y2="163" class="tickMinor" stroke-width="1"/>\n<line x1="898" y1="139" x2="903" y2="139" class="tickMinor" stroke-width="1"/>\n<line x1="898" y1="114" x2="903" y2="114" class="tickMinor" stroke-width="1"/>\n<line x1="898" y1="89" x2="903" y2="89" class="tickMinor" stroke-width="1"/>\n<line x1="898" y1="65" x2="903" y2="65" class="tickMinor" stroke-width="1"/>\n<text x="872.0" y="368.39000000000004" class="segLbl" text-anchor="middle">$0</text>\n<rect x="918" y="52" rx="12" ry="12" width="52" height="246" class="tube"/>\n<circle cx="944.0" cy="316.59000000000003" r="33.800000000000004" class="tube"/>\n<clipPath id="clipShape9"><rect x="918" y="52" rx="12" ry="12" width="52" height="246"/><circle cx="944.0" cy="316.59000000000003" r="33.800000000000004"/></clipPath>\n<clipPath id="clipLevel9"><rect x="916" y="350.39000000000004" width="56" height="0"/></clipPath>\n<g clip-path="url(#clipShape9)"><rect x="918" y="52" width="52" height="298.39000000000004" fill="url(#grad9)" clip-path="url(#clipLevel9)"/></g>\n<line x1="970" y1="298" x2="978" y2="298" class="tickMajor" stroke-width="2"/>\n<line x1="970" y1="274" x2="978" y2="274" class="tickMajor" stroke-width="2"/>\n<line x1="970" y1="249" x2="978" y2="249" class="tickMajor" stroke-width="2"/>\n<line x1="970" y1="225" x2="978" y2="225" class="tickMajor" stroke-width="2"/>\n<line x1="970" y1="200" x2="978" y2="200" class="tickMajor" stroke-width="2"/>\n<line x1="970" y1="175" x2="978" y2="175" class="tickMajor" stroke-width="2"/>\n<line x1="970" y1="151" x2="978" y2="151" class="tickMajor" stroke-width="2"/>\n<line x1="970" y1="126" x2="978" y2="126" class="tickMajor" stroke-width="2"/>\n<line x1="970" y1="102" x2="978" y2="102" class="tickMajor" stroke-width="2"/>\n<line x1="970" y1="77" x2="978" y2="77" class="tickMajor" stroke-width="2"/>\n<line x1="970" y1="52" x2="978" y2="52" class="tickMajor" stroke-width="2"/>\n<line x1="970" y1="286" x2="975" y2="286" class="tickMinor" stroke-width="1"/>\n<line x1="970" y1="262" x2="975" y2="262" class="tickMinor" stroke-width="1"/>\n<line x1="970" y1="237" x2="975" y2="237" class="tickMinor" stroke-width="1"/>\n<line x1="970" y1="212" x2="975" y2="212" class="tickMinor" stroke-width="1"/>\n<line x1="970" y1="188" x2="975" y2="188" class="tickMinor" stroke-width="1"/>\n<line x1="970" y1="163" x2="975" y2="163" class="tickMinor" stroke-width="1"/>\n<line x1="970" y1="139" x2="975" y2="139" class="tickMinor" stroke-width="1"/>\n<line x1="970" y1="114" x2="975" y2="114" class="tickMinor" stroke-width="1"/>\n<line x1="970" y1="89" x2="975" y2="89" class="tickMinor" stroke-width="1"/>\n<line x1="970" y1="65" x2="975" y2="65" class="tickMinor" stroke-width="1"/>\n<text x="944.0" y="368.39000000000004" class="segLbl" text-anchor="middle">$0</text>\n<text x="620.0" y="406" class="segLbl" text-anchor="middle">10 thermometers × $1M each · Major ticks $100k · Minor ticks $50k · Gradient revealed as funding increases</text>\n</svg>