<svg xmlns="http://www.w3.org/2000/svg" width="1240" height="420" viewBox="0 0 1240 420">
<defs>
<style>.title{font:700 20px system-ui,-apple-system,Segoe UI,Roboto,sans-serif;fill:#111}.label{font:600 13px system-ui,-apple-system,Segoe UI,Roboto,sans-serif;fill:#222}.value{font:700 16px system-ui,-apple-system,Segoe UI,Roboto,sans-serif;fill:#111}.tickMajor{stroke:#555}.tickMinor{stroke:#888}.tube{fill:none;stroke:#666;stroke-width:1.3}.segLbl{font:600 12px system-ui,-apple-system,Segoe UI,Roboto,sans-serif;fill:#666}</style>
<filter id="tubeFX" x="-25%" y="-25%" width="150%" height="150%" color-interpolation-filters="sRGB">  <feGaussianBlur in="SourceAlpha" stdDeviation="1.0" result="blur"/>  <feOffset dy="0.5" result="offsetBlur"/>  <feComposite in="offsetBlur" in2="SourceAlpha" operator="arithmetic" k2="-1" k3="1" result="innerShadow"/>  <feColorMatrix in="innerShadow" type="matrix" values="0 0 0 0 0  0 0 0 0 0  0 0 0 0 0  0 0 0 0.30 0" result="innerShadowColor"/>  <feComposite in="SourceGraphic" in2="innerShadowColor" operator="over" result="withInner"/>  <feGaussianBlur in="withInner" stdDeviation="0.35" result="glow"/>  <feMerge><feMergeNode in="glow"/><feMergeNode in="withInner"/></feMerge></filter>
</defs>
<text x="24" y="32" class="title">Quansight Initiate Fund III, L.P. — Capital Commitments</text>
<text x="1216" y="32" class="value" text-anchor="end">$2,010,000 / $10,000,000 (20%)</text>
<clipPath id="clipShape0" clipPathUnits="userSpaceOnUse">  <rect x="270" y="52" rx="12" ry="12" width="52" height="246"/>  <circle cx="296.0" cy="316.59000000000003" r="33.800000000000004"/></clipPath>
<g clip-path="url(#clipShape0)">  <rect x="270" y="52" width="52" height="298.39000000000004" fill="#ffffff"/></g>
<clipPath id="clipLevel0" clipPathUnits="userSpaceOnUse">  <rect x="261" y="52.39000000000004" width="69" height="298"/></clipPath>
<g clip-path="url(#clipShape0)">  <rect x="270" y="52" width="52" height="298.39000000000004" fill="#e02020" clip-path="url(#clipLevel0)"/></g>
<g filter="url(#tubeFX)">  <rect x="270" y="52" rx="12" ry="12" width="52" height="246" class="tube"/>  <circle cx="296.0" cy="316.59000000000003" r="33.800000000000004" class="tube"/></g>
<line x1="322" y1="298" x2="330" y2="298" class="tickMajor" stroke-width="2"/>
<line x1="322" y1="274" x2="330" y2="274" class="tickMajor" stroke-width="2"/>
<line x1="322" y1="249" x2="330" y2="249" class="tickMajor" stroke-width="2"/>
<line x1="322" y1="225" x2="330" y2="225" class="tickMajor" stroke-width="2"/>
<line x1="322" y1="200" x2="330" y2="200" class="tickMajor" stroke-width="2"/>
<line x1="322" y1="175" x2="330" y2="175" class="tickMajor" stroke-width="2"/>
<line x1="322" y1="151" x2="330" y2="151" class="tickMajor" stroke-width="2"/>
<line x1="322" y1="126" x2="330" y2="126" class="tickMajor" stroke-width="2"/>
<line x1="322" y1="102" x2="330" y2="102" class="tickMajor" stroke-width="2"/>
<line x1="322" y1="77" x2="330" y2="77" class="tickMajor" stroke-width="2"/>
<line x1="322" y1="52" x2="330" y2="52" class="tickMajor" stroke-width="2"/>
<line x1="322" y1="286" x2="327" y2="286" class="tickMinor" stroke-width="1"/>
<line x1="322" y1="262" x2="327" y2="262" class="tickMinor" stroke-width="1"/>
<line x1="322" y1="237" x2="327" y2="237" class="tickMinor" stroke-width="1"/>
<line x1="322" y1="212" x2="327" y2="212" class="tickMinor" stroke-width="1"/>
<line x1="322" y1="188" x2="327" y2="188" class="tickMinor" stroke-width="1"/>
<line x1="322" y1="163" x2="327" y2="163" class="tickMinor" stroke-width="1"/>
<line x1="322" y1="139" x2="327" y2="139" class="tickMinor" stroke-width="1"/>
<line x1="322" y1="114" x2="327" y2="114" class="tickMinor" stroke-width="1"/>
<line x1="322" y1="89" x2="327" y2="89" class="tickMinor" stroke-width="1"/>
<line x1="322" y1="65" x2="327" y2="65" class="tickMinor" stroke-width="1"/>
<text x="296.0" y="368.39000000000004" class="segLbl" text-anchor="middle">$1,000,000</text>
<clipPath id="clipShape1" clipPathUnits="userSpaceOnUse">  <rect x="342" y="52" rx="12" ry="12" width="52" height="246"/>  <circle cx="368.0" cy="316.59000000000003" r="33.800000000000004"/></clipPath>
<g clip-path="url(#clipShape1)">  <rect x="342" y="52" width="52" height="298.39000000000004" fill="#ffffff"/></g>
<clipPath id="clipLevel1" clipPathUnits="userSpaceOnUse">  <rect x="333" y="276.39000000000004" width="69" height="74"/></clipPath>
<g clip-path="url(#clipShape1)">  <rect x="342" y="52" width="52" height="298.39000000000004" fill="#e02020" clip-path="url(#clipLevel1)"/></g>
<g filter="url(#tubeFX)">  <rect x="342" y="52" rx="12" ry="12" width="52" height="246" class="tube"/>  <circle cx="368.0" cy="316.59000000000003" r="33.800000000000004" class="tube"/></g>
<line x1="394" y1="298" x2="402" y2="298" class="tickMajor" stroke-width="2"/>
<line x1="394" y1="274" x2="402" y2="274" class="tickMajor" stroke-width="2"/>
<line x1="394" y1="249" x2="402" y2="249" class="tickMajor" stroke-width="2"/>
<line x1="394" y1="225" x2="402" y2="225" class="tickMajor" stroke-width="2"/>
<line x1="394" y1="200" x2="402" y2="200" class="tickMajor" stroke-width="2"/>
<line x1="394" y1="175" x2="402" y2="175" class="tickMajor" stroke-width="2"/>
<line x1="394" y1="151" x2="402" y2="151" class="tickMajor" stroke-width="2"/>
<line x1="394" y1="126" x2="402" y2="126" class="tickMajor" stroke-width="2"/>
<line x1="394" y1="102" x2="402" y2="102" class="tickMajor" stroke-width="2"/>
<line x1="394" y1="77" x2="402" y2="77" class="tickMajor" stroke-width="2"/>
<line x1="394" y1="52" x2="402" y2="52" class="tickMajor" stroke-width="2"/>
<line x1="394" y1="286" x2="399" y2="286" class="tickMinor" stroke-width="1"/>
<line x1="394" y1="262" x2="399" y2="262" class="tickMinor" stroke-width="1"/>
<line x1="394" y1="237" x2="399" y2="237" class="tickMinor" stroke-width="1"/>
<line x1="394" y1="212" x2="399" y2="212" class="tickMinor" stroke-width="1"/>
<line x1="394" y1="188" x2="399" y2="188" class="tickMinor" stroke-width="1"/>
<line x1="394" y1="163" x2="399" y2="163" class="tickMinor" stroke-width="1"/>
<line x1="394" y1="139" x2="399" y2="139" class="tickMinor" stroke-width="1"/>
<line x1="394" y1="114" x2="399" y2="114" class="tickMinor" stroke-width="1"/>
<line x1="394" y1="89" x2="399" y2="89" class="tickMinor" stroke-width="1"/>
<line x1="394" y1="65" x2="399" y2="65" class="tickMinor" stroke-width="1"/>
<text x="368.0" y="368.39000000000004" class="segLbl" text-anchor="middle">$250,000</text>
<clipPath id="clipShape2" clipPathUnits="userSpaceOnUse">  <rect x="414" y="52" rx="12" ry="12" width="52" height="246"/>  <circle cx="440.0" cy="316.59000000000003" r="33.800000000000004"/></clipPath>
<g clip-path="url(#clipShape2)">  <rect x="414" y="52" width="52" height="298.39000000000004" fill="#ffffff"/></g>
<clipPath id="clipLevel2" clipPathUnits="userSpaceOnUse">  <rect x="405" y="142.39000000000004" width="69" height="208"/></clipPath>
<g clip-path="url(#clipShape2)">  <rect x="414" y="52" width="52" height="298.39000000000004" fill="#e02020" clip-path="url(#clipLevel2)"/></g>
<g filter="url(#tubeFX)">  <rect x="414" y="52" rx="12" ry="12" width="52" height="246" class="tube"/>  <circle cx="440.0" cy="316.59000000000003" r="33.800000000000004" class="tube"/></g>
<line x1="466" y1="298" x2="474" y2="298" class="tickMajor" stroke-width="2"/>
<line x1="466" y1="274" x2="474" y2="274" class="tickMajor" stroke-width="2"/>
<line x1="466" y1="249" x2="474" y2="249" class="tickMajor" stroke-width="2"/>
<line x1="466" y1="225" x2="474" y2="225" class="tickMajor" stroke-width="2"/>
<line x1="466" y1="200" x2="474" y2="200" class="tickMajor" stroke-width="2"/>
<line x1="466" y1="175" x2="474" y2="175" class="tickMajor" stroke-width="2"/>
<line x1="466" y1="151" x2="474" y2="151" class="tickMajor" stroke-width="2"/>
<line x1="466" y1="126" x2="474" y2="126" class="tickMajor" stroke-width="2"/>
<line x1="466" y1="102" x2="474" y2="102" class="tickMajor" stroke-width="2"/>
<line x1="466" y1="77" x2="474" y2="77" class="tickMajor" stroke-width="2"/>
<line x1="466" y1="52" x2="474" y2="52" class="tickMajor" stroke-width="2"/>
<line x1="466" y1="286" x2="471" y2="286" class="tickMinor" stroke-width="1"/>
<line x1="466" y1="262" x2="471" y2="262" class="tickMinor" stroke-width="1"/>
<line x1="466" y1="237" x2="471" y2="237" class="tickMinor" stroke-width="1"/>
<line x1="466" y1="212" x2="471" y2="212" class="tickMinor" stroke-width="1"/>
<line x1="466" y1="188" x2="471" y2="188" class="tickMinor" stroke-width="1"/>
<line x1="466" y1="163" x2="471" y2="163" class="tickMinor" stroke-width="1"/>
<line x1="466" y1="139" x2="471" y2="139" class="tickMinor" stroke-width="1"/>
<line x1="466" y1="114" x2="471" y2="114" class="tickMinor" stroke-width="1"/>
<line x1="466" y1="89" x2="471" y2="89" class="tickMinor" stroke-width="1"/>
<line x1="466" y1="65" x2="471" y2="65" class="tickMinor" stroke-width="1"/>
<text x="440.0" y="368.39000000000004" class="segLbl" text-anchor="middle">$700,000</text>
<clipPath id="clipShape3" clipPathUnits="userSpaceOnUse">  <rect x="486" y="52" rx="12" ry="12" width="52" height="246"/>  <circle cx="512.0" cy="316.59000000000003" r="33.800000000000004"/></clipPath>
<g clip-path="url(#clipShape3)">  <rect x="486" y="52" width="52" height="298.39000000000004" fill="#ffffff"/></g>
<clipPath id="clipLevel3" clipPathUnits="userSpaceOnUse">  <rect x="477" y="333.39000000000004" width="69" height="17"/></clipPath>
<g clip-path="url(#clipShape3)">  <rect x="486" y="52" width="52" height="298.39000000000004" fill="#e02020" clip-path="url(#clipLevel3)"/></g>
<g filter="url(#tubeFX)">  <rect x="486" y="52" rx="12" ry="12" width="52" height="246" class="tube"/>  <circle cx="512.0" cy="316.59000000000003" r="33.800000000000004" class="tube"/></g>
<line x1="538" y1="298" x2="546" y2="298" class="tickMajor" stroke-width="2"/>
<line x1="538" y1="274" x2="546" y2="274" class="tickMajor" stroke-width="2"/>
<line x1="538" y1="249" x2="546" y2="249" class="tickMajor" stroke-width="2"/>
<line x1="538" y1="225" x2="546" y2="225" class="tickMajor" stroke-width="2"/>
<line x1="538" y1="200" x2="546" y2="200" class="tickMajor" stroke-width="2"/>
<line x1="538" y1="175" x2="546" y2="175" class="tickMajor" stroke-width="2"/>
<line x1="538" y1="151" x2="546" y2="151" class="tickMajor" stroke-width="2"/>
<line x1="538" y1="126" x2="546" y2="126" class="tickMajor" stroke-width="2"/>
<line x1="538" y1="102" x2="546" y2="102" class="tickMajor" stroke-width="2"/>
<line x1="538" y1="77" x2="546" y2="77" class="tickMajor" stroke-width="2"/>
<line x1="538" y1="52" x2="546" y2="52" class="tickMajor" stroke-width="2"/>
<line x1="538" y1="286" x2="543" y2="286" class="tickMinor" stroke-width="1"/>
<line x1="538" y1="262" x2="543" y2="262" class="tickMinor" stroke-width="1"/>
<line x1="538" y1="237" x2="543" y2="237" class="tickMinor" stroke-width="1"/>
<line x1="538" y1="212" x2="543" y2="212" class="tickMinor" stroke-width="1"/>
<line x1="538" y1="188" x2="543" y2="188" class="tickMinor" stroke-width="1"/>
<line x1="538" y1="163" x2="543" y2="163" class="tickMinor" stroke-width="1"/>
<line x1="538" y1="139" x2="543" y2="139" class="tickMinor" stroke-width="1"/>
<line x1="538" y1="114" x2="543" y2="114" class="tickMinor" stroke-width="1"/>
<line x1="538" y1="89" x2="543" y2="89" class="tickMinor" stroke-width="1"/>
<line x1="538" y1="65" x2="543" y2="65" class="tickMinor" stroke-width="1"/>
<text x="512.0" y="368.39000000000004" class="segLbl" text-anchor="middle">$60,000</text>
<clipPath id="clipShape4" clipPathUnits="userSpaceOnUse">  <rect x="558" y="52" rx="12" ry="12" width="52" height="246"/>  <circle cx="584.0" cy="316.59000000000003" r="33.800000000000004"/></clipPath>
<g clip-path="url(#clipShape4)">  <rect x="558" y="52" width="52" height="298.39000000000004" fill="#ffffff"/></g>
<clipPath id="clipLevel4" clipPathUnits="userSpaceOnUse">  <rect x="549" y="350.39000000000004" width="69" height="0"/></clipPath>
<g clip-path="url(#clipShape4)">  <rect x="558" y="52" width="52" height="298.39000000000004" fill="#e02020" clip-path="url(#clipLevel4)"/></g>
<g filter="url(#tubeFX)">  <rect x="558" y="52" rx="12" ry="12" width="52" height="246" class="tube"/>  <circle cx="584.0" cy="316.59000000000003" r="33.800000000000004" class="tube"/></g>
<line x1="610" y1="298" x2="618" y2="298" class="tickMajor" stroke-width="2"/>
<line x1="610" y1="274" x2="618" y2="274" class="tickMajor" stroke-width="2"/>
<line x1="610" y1="249" x2="618" y2="249" class="tickMajor" stroke-width="2"/>
<line x1="610" y1="225" x2="618" y2="225" class="tickMajor" stroke-width="2"/>
<line x1="610" y1="200" x2="618" y2="200" class="tickMajor" stroke-width="2"/>
<line x1="610" y1="175" x2="618" y2="175" class="tickMajor" stroke-width="2"/>
<line x1="610" y1="151" x2="618" y2="151" class="tickMajor" stroke-width="2"/>
<line x1="610" y1="126" x2="618" y2="126" class="tickMajor" stroke-width="2"/>
<line x1="610" y1="102" x2="618" y2="102" class="tickMajor" stroke-width="2"/>
<line x1="610" y1="77" x2="618" y2="77" class="tickMajor" stroke-width="2"/>
<line x1="610" y1="52" x2="618" y2="52" class="tickMajor" stroke-width="2"/>
<line x1="610" y1="286" x2="615" y2="286" class="tickMinor" stroke-width="1"/>
<line x1="610" y1="262" x2="615" y2="262" class="tickMinor" stroke-width="1"/>
<line x1="610" y1="237" x2="615" y2="237" class="tickMinor" stroke-width="1"/>
<line x1="610" y1="212" x2="615" y2="212" class="tickMinor" stroke-width="1"/>
<line x1="610" y1="188" x2="615" y2="188" class="tickMinor" stroke-width="1"/>
<line x1="610" y1="163" x2="615" y2="163" class="tickMinor" stroke-width="1"/>
<line x1="610" y1="139" x2="615" y2="139" class="tickMinor" stroke-width="1"/>
<line x1="610" y1="114" x2="615" y2="114" class="tickMinor" stroke-width="1"/>
<line x1="610" y1="89" x2="615" y2="89" class="tickMinor" stroke-width="1"/>
<line x1="610" y1="65" x2="615" y2="65" class="tickMinor" stroke-width="1"/>
<text x="584.0" y="368.39000000000004" class="segLbl" text-anchor="middle">$0</text>
<clipPath id="clipShape5" clipPathUnits="userSpaceOnUse">  <rect x="630" y="52" rx="12" ry="12" width="52" height="246"/>  <circle cx="656.0" cy="316.59000000000003" r="33.800000000000004"/></clipPath>
<g clip-path="url(#clipShape5)">  <rect x="630" y="52" width="52" height="298.39000000000004" fill="#ffffff"/></g>
<clipPath id="clipLevel5" clipPathUnits="userSpaceOnUse">  <rect x="621" y="350.39000000000004" width="69" height="0"/></clipPath>
<g clip-path="url(#clipShape5)">  <rect x="630" y="52" width="52" height="298.39000000000004" fill="#e02020" clip-path="url(#clipLevel5)"/></g>
<g filter="url(#tubeFX)">  <rect x="630" y="52" rx="12" ry="12" width="52" height="246" class="tube"/>  <circle cx="656.0" cy="316.59000000000003" r="33.800000000000004" class="tube"/></g>
<line x1="682" y1="298" x2="690" y2="298" class="tickMajor" stroke-width="2"/>
<line x1="682" y1="274" x2="690" y2="274" class="tickMajor" stroke-width="2"/>
<line x1="682" y1="249" x2="690" y2="249" class="tickMajor" stroke-width="2"/>
<line x1="682" y1="225" x2="690" y2="225" class="tickMajor" stroke-width="2"/>
<line x1="682" y1="200" x2="690" y2="200" class="tickMajor" stroke-width="2"/>
<line x1="682" y1="175" x2="690" y2="175" class="tickMajor" stroke-width="2"/>
<line x1="682" y1="151" x2="690" y2="151" class="tickMajor" stroke-width="2"/>
<line x1="682" y1="126" x2="690" y2="126" class="tickMajor" stroke-width="2"/>
<line x1="682" y1="102" x2="690" y2="102" class="tickMajor" stroke-width="2"/>
<line x1="682" y1="77" x2="690" y2="77" class="tickMajor" stroke-width="2"/>
<line x1="682" y1="52" x2="690" y2="52" class="tickMajor" stroke-width="2"/>
<line x1="682" y1="286" x2="687" y2="286" class="tickMinor" stroke-width="1"/>
<line x1="682" y1="262" x2="687" y2="262" class="tickMinor" stroke-width="1"/>
<line x1="682" y1="237" x2="687" y2="237" class="tickMinor" stroke-width="1"/>
<line x1="682" y1="212" x2="687" y2="212" class="tickMinor" stroke-width="1"/>
<line x1="682" y1="188" x2="687" y2="188" class="tickMinor" stroke-width="1"/>
<line x1="682" y1="163" x2="687" y2="163" class="tickMinor" stroke-width="1"/>
<line x1="682" y1="139" x2="687" y2="139" class="tickMinor" stroke-width="1"/>
<line x1="682" y1="114" x2="687" y2="114" class="tickMinor" stroke-width="1"/>
<line x1="682" y1="89" x2="687" y2="89" class="tickMinor" stroke-width="1"/>
<line x1="682" y1="65" x2="687" y2="65" class="tickMinor" stroke-width="1"/>
<text x="656.0" y="368.39000000000004" class="segLbl" text-anchor="middle">$0</text>
<clipPath id="clipShape6" clipPathUnits="userSpaceOnUse">  <rect x="702" y="52" rx="12" ry="12" width="52" height="246"/>  <circle cx="728.0" cy="316.59000000000003" r="33.800000000000004"/></clipPath>
<g clip-path="url(#clipShape6)">  <rect x="702" y="52" width="52" height="298.39000000000004" fill="#ffffff"/></g>
<clipPath id="clipLevel6" clipPathUnits="userSpaceOnUse">  <rect x="693" y="350.39000000000004" width="69" height="0"/></clipPath>
<g clip-path="url(#clipShape6)">  <rect x="702" y="52" width="52" height="298.39000000000004" fill="#e02020" clip-path="url(#clipLevel6)"/></g>
<g filter="url(#tubeFX)">  <rect x="702" y="52" rx="12" ry="12" width="52" height="246" class="tube"/>  <circle cx="728.0" cy="316.59000000000003" r="33.800000000000004" class="tube"/></g>
<line x1="754" y1="298" x2="762" y2="298" class="tickMajor" stroke-width="2"/>
<line x1="754" y1="274" x2="762" y2="274" class="tickMajor" stroke-width="2"/>
<line x1="754" y1="249" x2="762" y2="249" class="tickMajor" stroke-width="2"/>
<line x1="754" y1="225" x2="762" y2="225" class="tickMajor" stroke-width="2"/>
<line x1="754" y1="200" x2="762" y2="200" class="tickMajor" stroke-width="2"/>
<line x1="754" y1="175" x2="762" y2="175" class="tickMajor" stroke-width="2"/>
<line x1="754" y1="151" x2="762" y2="151" class="tickMajor" stroke-width="2"/>
<line x1="754" y1="126" x2="762" y2="126" class="tickMajor" stroke-width="2"/>
<line x1="754" y1="102" x2="762" y2="102" class="tickMajor" stroke-width="2"/>
<line x1="754" y1="77" x2="762" y2="77" class="tickMajor" stroke-width="2"/>
<line x1="754" y1="52" x2="762" y2="52" class="tickMajor" stroke-width="2"/>
<line x1="754" y1="286" x2="759" y2="286" class="tickMinor" stroke-width="1"/>
<line x1="754" y1="262" x2="759" y2="262" class="tickMinor" stroke-width="1"/>
<line x1="754" y1="237" x2="759" y2="237" class="tickMinor" stroke-width="1"/>
<line x1="754" y1="212" x2="759" y2="212" class="tickMinor" stroke-width="1"/>
<line x1="754" y1="188" x2="759" y2="188" class="tickMinor" stroke-width="1"/>
<line x1="754" y1="163" x2="759" y2="163" class="tickMinor" stroke-width="1"/>
<line x1="754" y1="139" x2="759" y2="139" class="tickMinor" stroke-width="1"/>
<line x1="754" y1="114" x2="759" y2="114" class="tickMinor" stroke-width="1"/>
<line x1="754" y1="89" x2="759" y2="89" class="tickMinor" stroke-width="1"/>
<line x1="754" y1="65" x2="759" y2="65" class="tickMinor" stroke-width="1"/>
<text x="728.0" y="368.39000000000004" class="segLbl" text-anchor="middle">$0</text>
<clipPath id="clipShape7" clipPathUnits="userSpaceOnUse">  <rect x="774" y="52" rx="12" ry="12" width="52" height="246"/>  <circle cx="800.0" cy="316.59000000000003" r="33.800000000000004"/></clipPath>
<g clip-path="url(#clipShape7)">  <rect x="774" y="52" width="52" height="298.39000000000004" fill="#ffffff"/></g>
<clipPath id="clipLevel7" clipPathUnits="userSpaceOnUse">  <rect x="765" y="350.39000000000004" width="69" height="0"/></clipPath>
<g clip-path="url(#clipShape7)">  <rect x="774" y="52" width="52" height="298.39000000000004" fill="#e02020" clip-path="url(#clipLevel7)"/></g>
<g filter="url(#tubeFX)">  <rect x="774" y="52" rx="12" ry="12" width="52" height="246" class="tube"/>  <circle cx="800.0" cy="316.59000000000003" r="33.800000000000004" class="tube"/></g>
<line x1="826" y1="298" x2="834" y2="298" class="tickMajor" stroke-width="2"/>
<line x1="826" y1="274" x2="834" y2="274" class="tickMajor" stroke-width="2"/>
<line x1="826" y1="249" x2="834" y2="249" class="tickMajor" stroke-width="2"/>
<line x1="826" y1="225" x2="834" y2="225" class="tickMajor" stroke-width="2"/>
<line x1="826" y1="200" x2="834" y2="200" class="tickMajor" stroke-width="2"/>
<line x1="826" y1="175" x2="834" y2="175" class="tickMajor" stroke-width="2"/>
<line x1="826" y1="151" x2="834" y2="151" class="tickMajor" stroke-width="2"/>
<line x1="826" y1="126" x2="834" y2="126" class="tickMajor" stroke-width="2"/>
<line x1="826" y1="102" x2="834" y2="102" class="tickMajor" stroke-width="2"/>
<line x1="826" y1="77" x2="834" y2="77" class="tickMajor" stroke-width="2"/>
<line x1="826" y1="52" x2="834" y2="52" class="tickMajor" stroke-width="2"/>
<line x1="826" y1="286" x2="831" y2="286" class="tickMinor" stroke-width="1"/>
<line x1="826" y1="262" x2="831" y2="262" class="tickMinor" stroke-width="1"/>
<line x1="826" y1="237" x2="831" y2="237" class="tickMinor" stroke-width="1"/>
<line x1="826" y1="212" x2="831" y2="212" class="tickMinor" stroke-width="1"/>
<line x1="826" y1="188" x2="831" y2="188" class="tickMinor" stroke-width="1"/>
<line x1="826" y1="163" x2="831" y2="163" class="tickMinor" stroke-width="1"/>
<line x1="826" y1="139" x2="831" y2="139" class="tickMinor" stroke-width="1"/>
<line x1="826" y1="114" x2="831" y2="114" class="tickMinor" stroke-width="1"/>
<line x1="826" y1="89" x2="831" y2="89" class="tickMinor" stroke-width="1"/>
<line x1="826" y1="65" x2="831" y2="65" class="tickMinor" stroke-width="1"/>
<text x="800.0" y="368.39000000000004" class="segLbl" text-anchor="middle">$0</text>
<clipPath id="clipShape8" clipPathUnits="userSpaceOnUse">  <rect x="846" y="52" rx="12" ry="12" width="52" height="246"/>  <circle cx="872.0" cy="316.59000000000003" r="33.800000000000004"/></clipPath>
<g clip-path="url(#clipShape8)">  <rect x="846" y="52" width="52" height="298.39000000000004" fill="#ffffff"/></g>
<clipPath id="clipLevel8" clipPathUnits="userSpaceOnUse">  <rect x="837" y="350.39000000000004" width="69" height="0"/></clipPath>
<g clip-path="url(#clipShape8)">  <rect x="846" y="52" width="52" height="298.39000000000004" fill="#e02020" clip-path="url(#clipLevel8)"/></g>
<g filter="url(#tubeFX)">  <rect x="846" y="52" rx="12" ry="12" width="52" height="246" class="tube"/>  <circle cx="872.0" cy="316.59000000000003" r="33.800000000000004" class="tube"/></g>
<line x1="898" y1="298" x2="906" y2="298" class="tickMajor" stroke-width="2"/>
<line x1="898" y1="274" x2="906" y2="274" class="tickMajor" stroke-width="2"/>
<line x1="898" y1="249" x2="906" y2="249" class="tickMajor" stroke-width="2"/>
<line x1="898" y1="225" x2="906" y2="225" class="tickMajor" stroke-width="2"/>
<line x1="898" y1="200" x2="906" y2="200" class="tickMajor" stroke-width="2"/>
<line x1="898" y1="175" x2="906" y2="175" class="tickMajor" stroke-width="2"/>
<line x1="898" y1="151" x2="906" y2="151" class="tickMajor" stroke-width="2"/>
<line x1="898" y1="126" x2="906" y2="126" class="tickMajor" stroke-width="2"/>
<line x1="898" y1="102" x2="906" y2="102" class="tickMajor" stroke-width="2"/>
<line x1="898" y1="77" x2="906" y2="77" class="tickMajor" stroke-width="2"/>
<line x1="898" y1="52" x2="906" y2="52" class="tickMajor" stroke-width="2"/>
<line x1="898" y1="286" x2="903" y2="286" class="tickMinor" stroke-width="1"/>
<line x1="898" y1="262" x2="903" y2="262" class="tickMinor" stroke-width="1"/>
<line x1="898" y1="237" x2="903" y2="237" class="tickMinor" stroke-width="1"/>
<line x1="898" y1="212" x2="903" y2="212" class="tickMinor" stroke-width="1"/>
<line x1="898" y1="188" x2="903" y2="188" class="tickMinor" stroke-width="1"/>
<line x1="898" y1="163" x2="903" y2="163" class="tickMinor" stroke-width="1"/>
<line x1="898" y1="139" x2="903" y2="139" class="tickMinor" stroke-width="1"/>
<line x1="898" y1="114" x2="903" y2="114" class="tickMinor" stroke-width="1"/>
<line x1="898" y1="89" x2="903" y2="89" class="tickMinor" stroke-width="1"/>
<line x1="898" y1="65" x2="903" y2="65" class="tickMinor" stroke-width="1"/>
<text x="872.0" y="368.39000000000004" class="segLbl" text-anchor="middle">$0</text>
<clipPath id="clipShape9" clipPathUnits="userSpaceOnUse">  <rect x="918" y="52" rx="12" ry="12" width="52" height="246"/>  <circle cx="944.0" cy="316.59000000000003" r="33.800000000000004"/></clipPath>
<g clip-path="url(#clipShape9)">  <rect x="918" y="52" width="52" height="298.39000000000004" fill="#ffffff"/></g>
<clipPath id="clipLevel9" clipPathUnits="userSpaceOnUse">  <rect x="909" y="350.39000000000004" width="69" height="0"/></clipPath>
<g clip-path="url(#clipShape9)">  <rect x="918" y="52" width="52" height="298.39000000000004" fill="#e02020" clip-path="url(#clipLevel9)"/></g>
<g filter="url(#tubeFX)">  <rect x="918" y="52" rx="12" ry="12" width="52" height="246" class="tube"/>  <circle cx="944.0" cy="316.59000000000003" r="33.800000000000004" class="tube"/></g>
<line x1="970" y1="298" x2="978" y2="298" class="tickMajor" stroke-width="2"/>
<line x1="970" y1="274" x2="978" y2="274" class="tickMajor" stroke-width="2"/>
<line x1="970" y1="249" x2="978" y2="249" class="tickMajor" stroke-width="2"/>
<line x1="970" y1="225" x2="978" y2="225" class="tickMajor" stroke-width="2"/>
<line x1="970" y1="200" x2="978" y2="200" class="tickMajor" stroke-width="2"/>
<line x1="970" y1="175" x2="978" y2="175" class="tickMajor" stroke-width="2"/>
<line x1="970" y1="151" x2="978" y2="151" class="tickMajor" stroke-width="2"/>
<line x1="970" y1="126" x2="978" y2="126" class="tickMajor" stroke-width="2"/>
<line x1="970" y1="102" x2="978" y2="102" class="tickMajor" stroke-width="2"/>
<line x1="970" y1="77" x2="978" y2="77" class="tickMajor" stroke-width="2"/>
<line x1="970" y1="52" x2="978" y2="52" class="tickMajor" stroke-width="2"/>
<line x1="970" y1="286" x2="975" y2="286" class="tickMinor" stroke-width="1"/>
<line x1="970" y1="262" x2="975" y2="262" class="tickMinor" stroke-width="1"/>
<line x1="970" y1="237" x2="975" y2="237" class="tickMinor" stroke-width="1"/>
<line x1="970" y1="212" x2="975" y2="212" class="tickMinor" stroke-width="1"/>
<line x1="970" y1="188" x2="975" y2="188" class="tickMinor" stroke-width="1"/>
<line x1="970" y1="163" x2="975" y2="163" class="tickMinor" stroke-width="1"/>
<line x1="970" y1="139" x2="975" y2="139" class="tickMinor" stroke-width="1"/>
<line x1="970" y1="114" x2="975" y2="114" class="tickMinor" stroke-width="1"/>
<line x1="970" y1="89" x2="975" y2="89" class="tickMinor" stroke-width="1"/>
<line x1="970" y1="65" x2="975" y2="65" class="tickMinor" stroke-width="1"/>
<text x="944.0" y="368.39000000000004" class="segLbl" text-anchor="middle">$0</text>
<text x="620.0" y="406" class="segLbl" text-anchor="middle">10 thermometers × $1M each · Major ticks $100k · Minor ticks $50k · White base with solid red fill growing upward</text>
</svg>